PathFileType	4	(X/Y/Z)	RBDS027\RBDS027runT35.trc
DataRate	CameraRate	NumFrames	NumMarkers	Units	OrigDataRate	OrigDataStartFrame	OrigNumFrames
150.000000	150.000000	4	33	mm	150.000000	3937	4500
Frame#	Time	L.ASIS			L.Heel.Bottom			L.Heel.Lateral			L.Heel.Top			L.Iliac.Crest			L.MT1			L.MT5			L.PSIS			L.Shank.Bottom.Lateral			L.Shank.Bottom.Medial			L.Shank.Top.Lateral			L.Shank.Top.Medial			L.Thigh.Bottom.Lateral			L.Thigh.Bottom.Medial			L.Thigh.Top.Lateral			L.Thigh.Top.Medial			R.ASIS			R.ASY			R.Heel.Bottom			R.Heel.Lateral			R.Heel.Top			R.Iliac.Crest			R.MT1			R.MT5			R.PSIS			R.Shank.Bottom.Lateral			R.Shank.Bottom.Medial			R.Shank.Top.Lateral			R.Shank.Top.Medial			R.Thigh.Bottom.Lateral			R.Thigh.Bottom.Medial			R.Thigh.Top.Lateral			R.Thigh.Top.Medial			
		X1	Y1	Z1	X2	Y2	Z2	X3	Y3	Z3	X4	Y4	Z4	X5	Y5	Z5	X6	Y6	Z6	X7	Y7	Z7	X8	Y8	Z8	X9	Y9	Z9	X10	Y10	Z10	X11	Y11	Z11	X12	Y12	Z12	X13	Y13	Z13	X14	Y14	Z14	X15	Y15	Z15	X16	Y16	Z16	X17	Y17	Z17	X18	Y18	Z18	X19	Y19	Z19	X20	Y20	Z20	X21	Y21	Z21	X22	Y22	Z22	X23	Y23	Z23	X24	Y24	Z24	X25	Y25	Z25	X26	Y26	Z26	X27	Y27	Z27	X28	Y28	Z28	X29	Y29	Z29	X30	Y30	Z30	X31	Y31	Z31	X32	Y32	Z32	X33	Y33	Z33	

3938	26.24666666666667	2121.708682086555	838.638693546264	939.3572194244389	1989.654809356467	24.37906312793321	1073.705882472475	2019.605932827503	45.8052472226532	1028.859542548341	2008.382482970817	71.45302290285568	1077.922666436975	2052.822841358614	891.1636252532077	918.6994040934246	2211.852532454766	29.7718974709278	1101.163676314237	2165.742156098626	33.86785740590744	991.9298052826192	1974.161930816561	859.7403207789733	1052.918042030864	2087.365898019538	129.0514496789988	1002.051645307805	2053.232269634843	149.6923231200196	1041.095454886345	2096.392602287636	204.3187634061854	973.0534759277211	2068.853314897905	224.9855509745901	1015.0346124017	2157.976947298001	497.5488240832032	909.3452467760578	2114.549040141931	472.8548510245969	960.3521180271358	2092.781355775337	585.7380957174223	900.0623273070059	2052.394339072309	563.9864279606339	950.4490528138384	2160.532590186701	817.7698930848156	1201.177630462468	1701.001714234391	376.9591555311101	1166.60209356726	1713.534498741805	561.5428036388404	1124.629934222301	1716.816240543634	534.6422561024006	1173.085262428085	1750.006780091722	535.9108079306228	1129.854733261326	2127.156065584749	900.7756198678502	1227.447248933824	1641.76732069759	354.538529508498	1116.911732768011	1650.693122976075	406.3506124983728	1224.538706144417	1995.147642999364	856.2411138794694	1144.154835903668	1807.270295158203	473.5295192635267	1195.045158596528	1820.687007132286	497.8740726634316	1153.353613800781	1889.040199976316	464.2800493817044	1215.85033014434	1899.726464746229	491.021747079246	1170.713015451572	2093.902514023926	449.0296136143185	1247.947160801075	2045.553298013014	448.8463293437636	1196.348635239906	2070.196106957849	555.30251112894	1258.249749405516	2017.99213266533	549.9692786491696	1212.676382685095	
3939	26.25333333333333	2120.167631088198	836.4911376075369	939.5766455681268	1966.702876071678	25.22655963378612	1073.931434851969	1996.612037574173	46.71407520354963	1029.091341761593	1985.449720197714	72.16060151795837	1078.231405533451	2051.144669933699	887.9228551793715	918.7595026596662	2188.471928818833	30.06542242881925	1101.11497471287	2142.257744803802	34.50004536698776	992.0406291841412	1972.293690867569	858.6497831305895	1052.799255932503	2067.390757954422	129.5588368793367	1002.06832843364	2033.708346552958	151.6520648575595	1040.757015407789	2079.401338805134	204.2509465380629	972.8721206939142	2052.348296846247	226.1712603726977	1014.517344191184	2149.621884683517	493.9009956137541	909.4520159949897	2106.024542416098	470.2695587911863	960.7817055895968	2086.570551150304	583.5756017270243	900.546177286439	2046.099828959568	562.8346834155965	951.2168995051015	2157.777827131138	816.5372254411219	1202.247809892151	1719.649275375202	371.3000385677393	1167.667356603912	1727.909001225298	555.9037986145494	1124.427914424462	1732.614126104091	529.7021781195809	1173.220374993271	1764.968510386884	530.9593935534505	1129.248253395628	2121.594825622681	899.1153034876533	1228.463288191386	1659.859113844454	347.3050765086707	1119.373146577394	1669.863331824975	400.3372102196842	1226.536044723374	1992.670026568836	854.9251934802566	1143.825974929525	1823.867479990801	469.6167954359562	1195.023546112196	1837.086544382644	493.9538806598515	1153.238441116917	1905.745149366802	461.1134497905706	1215.818197875008	1916.217008181416	487.8481006596746	1170.691679430078	2107.654900021947	447.8077854030655	1249.497230963438	2060.128517282032	446.0427154075257	1197.860106752766	2078.310001090479	552.6867496186253	1259.685663859407	2026.14581164382	544.2398289786278	1214.573560676721	
3940	26.26	2118.860876276807	834.8585368757023	939.7099970674485	1943.583748037658	25.98893384650821	1074.131215515964	1973.461637171379	47.48739904507171	1029.271864361398	1962.34008495696	72.81224997654942	1078.456268256207	2050.254331468838	886.0479148513571	918.5484082433115	2165.021277299209	30.22378490484563	1101.095404322876	2118.708171343837	34.90317342065292	992.213252412611	1970.651165409243	858.2789645055237	1052.367633389939	2046.958150817233	129.9678252428163	1002.119980809622	2013.765809375353	153.3421512326878	1040.502424139138	2061.673021299158	204.0408179815212	972.8402587647521	2035.097809254439	227.0643723323635	1014.169872804403	2140.27586721436	490.4611265680137	909.8342407427886	2096.318949547383	468.078250059751	961.377256007995	2079.759520828164	581.808643555008	901.1319523459592	2039.081207023874	562.2803240931609	952.036844725884	2155.18361722544	816.001175929187	1203.180278998052	1738.577749758947	364.2086312320553	1168.479395707204	1741.223779298669	548.8508078193593	1124.287372617647	1747.559373334956	523.3326351027205	1173.369134486597	1779.07017594474	524.8813040487431	1128.682790842985	2115.882271073713	898.2235576778377	1229.310673381839	1678.452980194146	338.3092230482253	1121.575334644637	1689.134485036355	392.4388729986941	1228.287515253059	1990.404903434189	854.2842411672927	1143.26062951245	1839.974676706698	464.982142157605	1194.901083750959	1852.821065860012	489.4667763753653	1153.024558987312	1921.995882514224	457.8718192954865	1215.648928423514	1932.037498929336	484.7391568189278	1170.594614901369	2121.697651922131	448.0059795279822	1250.781199879802	2075.145217118754	444.5170965330273	1198.962249190435	2086.665149175922	551.179856066605	1260.849617743244	2034.727675390001	539.6127978867985	1216.177136878968	
3941	26.26666666666667	2117.762529812394	833.7504586471451	939.7285626333379	1920.288451077462	26.76827164082727	1074.278590041269	1950.166819026194	48.22520600078391	1029.38594193899	1939.08277370449	73.50765809469726	1078.5872345956	2050.078813387987	885.464805727708	918.0815604563635	2141.51890993901	30.19196656650306	1101.151499638844	2095.117848500669	35.10565011152357	992.4586305297858	1969.244094051673	858.5641487094714	1051.688996891791	2026.146065059968	130.3574842862315	1002.226763795102	1993.436639662312	154.8507715154228	1040.327557339655	2043.301179568835	203.7977982838821	972.9536790325922	2017.161877574078	227.784480681342	1013.97782044476	2130.058638079157	487.346995344738	910.4584754108312	2085.564923652581	466.3818507049136	962.0977676686114	2072.427931587404	580.5018725136035	901.7929418726211	2031.429513698558	562.3677792254024	952.8770664500934	2152.84222585093	816.1255591697545	1203.90748717117	1757.751530079506	355.7886248167204	1169.016004228391	1753.456011290654	540.3352206739871	1124.196148009965	1761.569954717582	515.4907022932754	1173.497826643446	1792.250103441733	517.6575953981369	1128.156833492953	2110.353682706248	898.0371195404334	1229.959795815894	1697.618523472925	327.654174984555	1123.432106133977	1708.447882356573	382.7250282825474	1229.714370405268	1988.404592235905	854.2666141228796	1142.515494924116	1855.505613789946	459.634472035437	1194.673304058158	1867.802566383079	484.4148397997703	1152.714414217127	1937.664968220847	454.5659460867819	1215.361920849419	1947.062185050557	481.6899634463405	1170.42452861019	2135.793645994519	449.6662798100337	1251.763391422395	2090.337984667975	444.2480597191641	1199.616124429964	2095.139740644293	550.8432180544969	1261.676962987533	2043.636807966122	536.2189642920526	1217.387394783313	
